Coordinates
version=1
nRows=13
nColumns=38
inDegrees=no

Units are S.I. units (second, meters, Newtons, ...)
If the header above contains a line with 'inDegrees', this indicates whether rotational values are in degrees (yes) or radians (no).

endheader
time	pelvis_tilt	pelvis_list	pelvis_rotation	pelvis_tx	pelvis_ty	pelvis_tz	hip_flexion_r	hip_adduction_r	hip_rotation_r	knee_angle_r	ankle_angle_r	subtalar_angle_r	mtp_angle_r	hip_flexion_l	hip_adduction_l	hip_rotation_l	knee_angle_l	ankle_angle_l	subtalar_angle_l	mtp_angle_l	lumbar_extension	lumbar_bending	lumbar_rotation	arm_flex_r	arm_add_r	arm_rot_r	elbow_flex_r	pro_sup_r	wrist_flex_r	wrist_dev_r	arm_flex_l	arm_add_l	arm_rot_l	elbow_flex_l	pro_sup_l	wrist_flex_l	wrist_dev_l
0	3.11963	1.37605	-1.34396	0.663374	0.224503	0.943187	-0.253105	0.0783942	-0.183881	0.11185	-0.354255	0	0	-0.249905	-0.159303	-0.0326314	0	-0.516556	0	0	-0.281235	0.0977211	0.00136752	0.265697	-0.172856	0.355818	0.329026	1.5708	0	0	0.247152	-0.111104	0.43504	0.375795	1.5708	0	0
0.01	3.12043	1.37385	-1.34638	0.664636	0.224604	0.943222	-0.25506	0.0793835	-0.182531	0.112435	-0.353505	0	0	-0.246528	-0.160097	-0.0284952	0	-0.511575	0	0	-0.283747	0.0976519	3.70776e-05	0.267813	-0.172612	0.353116	0.326147	1.5708	0	0	0.247355	-0.112747	0.431027	0.378771	1.5708	0	0
0.02	3.12065	1.37146	-1.34824	0.665921	0.22471	0.94325	-0.257038	0.080598	-0.180995	0.113401	-0.352783	0	0	-0.241928	-0.161254	-0.0247634	0.00370072	-0.505963	0	0	-0.286409	0.0977119	-0.000950357	0.269589	-0.172828	0.350654	0.324349	1.5708	0	0	0.247998	-0.114302	0.427196	0.381197	1.5708	0	0
0.03	3.12127	1.36844	-1.35039	0.667214	0.22472	0.94332	-0.259491	0.0819326	-0.179295	0.114631	-0.35157	0	0	-0.233983	-0.16282	-0.0246873	0.0253983	-0.49467	0	0	-0.289997	0.0978736	-0.0027202	0.272302	-0.17244	0.34681	0.322122	1.5708	0	0	0.248188	-0.116167	0.420589	0.384576	1.5708	0	0
0.04	3.12164	1.36526	-1.3524	0.668485	0.224711	0.943383	-0.262071	0.0832869	-0.177324	0.115989	-0.350246	0	0	-0.225659	-0.164473	-0.0243005	0.0482898	-0.483735	0	0	-0.293768	0.0980935	-0.00435851	0.27495	-0.17224	0.343032	0.320398	1.5708	0	0	0.248484	-0.117898	0.41363	0.387567	1.5708	0	0
0.05	3.12206	1.36196	-1.35434	0.669719	0.224695	0.943446	-0.264979	0.0847277	-0.175344	0.116954	-0.348759	0	0	-0.216904	-0.166171	-0.0236342	0.0722419	-0.473552	0	0	-0.297649	0.0982556	-0.00604195	0.277399	-0.172191	0.339171	0.319165	1.5708	0	0	0.248912	-0.119648	0.406703	0.390319	1.5708	0	0
0.06	3.12082	1.36012	-1.35481	0.67087	0.224754	0.94351	-0.266271	0.0861115	-0.173135	0.118056	-0.346927	0	0	-0.205868	-0.167806	-0.0225288	0.0976707	-0.464615	0	0	-0.300188	0.0981538	-0.00754351	0.280653	-0.171525	0.335384	0.315394	1.5708	0	0	0.249632	-0.121386	0.401623	0.392095	1.5708	0	0
0.07	3.12066	1.35782	-1.35645	0.672002	0.224792	0.94364	-0.268254	0.0874392	-0.170705	0.118791	-0.34394	0	0	-0.195054	-0.169318	-0.0201698	0.123508	-0.457937	0	0	-0.303444	0.0977221	-0.00790445	0.2828	-0.17218	0.333704	0.313901	1.5708	0	0	0.251607	-0.123341	0.400767	0.39304	1.5708	0	0
0.08	3.12199	1.3552	-1.35944	0.673078	0.224829	0.94379	-0.271259	0.0884287	-0.168696	0.118193	-0.346307	0	0	-0.18444	-0.170647	-0.0171308	0.149474	-0.455546	0	0	-0.307053	0.0974796	-0.0104896	0.28697	-0.170963	0.329003	0.309959	1.5708	0	0	0.251423	-0.125919	0.393908	0.396198	1.5708	0	0
0.09	3.123	1.35309	-1.3623	0.674109	0.224891	0.943919	-0.273702	0.0892742	-0.166969	0.117703	-0.347127	0	0	-0.172429	-0.172008	-0.0147185	0.17743	-0.449697	0	0	-0.310162	0.0972168	-0.0131112	0.291029	-0.170069	0.324869	0.306464	1.5708	0	0	0.251157	-0.128574	0.387331	0.399072	1.5708	0	0
0.1	3.12437	1.35108	-1.36574	0.675089	0.224957	0.944075	-0.275852	0.0898333	-0.165763	0.11768	-0.347371	0	0	-0.159887	-0.17319	-0.0125369	0.206285	-0.443084	0	0	-0.313345	0.0969188	-0.0156655	0.294958	-0.169641	0.321013	0.303692	1.5708	0	0	0.250852	-0.131254	0.380936	0.401908	1.5708	0	0
0.11	3.12631	1.34931	-1.37	0.676043	0.225036	0.944261	-0.277703	0.0900355	-0.164771	0.117772	-0.347444	0	0	-0.146831	-0.174037	-0.0104273	0.235713	-0.436486	0	0	-0.316504	0.0964042	-0.0180908	0.298643	-0.169398	0.316062	0.30163	1.5708	0	0	0.250424	-0.134126	0.374526	0.405021	1.5708	0	0
0.12	3.12876	1.34789	-1.37487	0.676971	0.225133	0.944448	-0.279152	0.0899149	-0.16438	0.117868	-0.34763	0	0	-0.133251	-0.174513	-0.00792875	0.265489	-0.430384	0	0	-0.319431	0.095695	-0.0203752	0.302247	-0.169084	0.309635	0.299576	1.5708	0	0	0.25	-0.137038	0.367996	0.408053	1.5708	0	0
